<svg t="1696860987303" class="icon" viewBox="0 0 1024 1024" version="1.1" xmlns="http://www.w3.org/2000/svg" p-id="17914" width="200" height="200"><path d="M497.271644 1023.873559H21.560087c-4.55186 0-5.605532-1.053671-5.605532-5.605531V5.647679C15.954555 1.053671 17.008226 0 21.560087 0h980.757326c4.594007 0 5.605532 1.053671 5.605532 5.647679v487.934145c-2.233783-1.390846-1.137965-3.62463-1.3487-5.479091a207.025354 207.025354 0 0 0-3.456042-27.859071 6.364175 6.364175 0 0 0-1.222259-4.678301l-14.87784 19.008231a28.364834 28.364834 0 0 1-0.92723-4.214685 327.691801 327.691801 0 0 0-9.946658-57.446164 431.288772 431.288772 0 0 0-27.016135-75.86434 113.417188 113.417188 0 0 0-8.429371-19.513994 702.040171 702.040171 0 0 0-44.338492-81.048403c-13.234113-23.05433-27.732631-45.30787-42.694764-67.434969-3.287455-5.352651-6.659203-10.705301-9.862364-16.142245-10.45242-17.533092-22.464274-34.349687-26.805401-55.718143-11.716826 14.20349-17.195917 30.43003-21.073427 47.288771-30.682911-28.659862-60.649325-57.994073-86.401054-91.290088-11.590385-15.004281-22.295687-30.640764-25.077379-51.419164a405.284162 405.284162 0 0 0-60.31215 98.960817 455.186039 455.186039 0 0 0-205.423774-3.245308 359.934146 359.934146 0 0 0-67.434968 20.146197 362.462957 362.462957 0 0 0-68.193612 32.453078 412.491274 412.491274 0 0 0-73.714851 53.526507 15.67863 15.67863 0 0 1-5.22621-4.889036 220.006585 220.006585 0 0 1-17.701679-25.793875c-1.222259-2.528811-1.854462-6.490616-3.835364-7.333553a10.578861 10.578861 0 0 1-6.111294-8.429371c-0.463615-1.980902-1.095818-3.877511-1.643727-5.858413a146.50247 146.50247 0 0 1-4.804742-39.955219c-13.655581 9.272308-20.10405 22.211393-25.793875 35.740534-0.295028 0-0.505762 0-0.547909 0.337174-1.222259-2.023049-2.402371-2.781692-3.835364 0-5.352651 9.820217-12.222588 18.797498-16.521568 29.207771a268.475469 268.475469 0 0 0-20.314784 102.880474 185.446164 185.446164 0 0 0-21.073428 27.690484 276.314784 276.314784 0 0 0-27.353309 48.848206 569.23543 569.23543 0 0 0-30.387883 86.021732c7.628581-11.463945 13.318406-24.150148 22.25354-34.98189C26.912737 460.412249 19.663478 515.75107 17.598282 572.017122a382.777741 382.777741 0 0 1 12.854791-42.736911 9.019427 9.019427 0 0 1 0.80079 4.214685 432.005268 432.005268 0 0 0 4.214686 71.902536c13.318406 93.650313 52.767863 175.330919 114.217978 246.516957 43.95917 50.913401 97.738558 89.646362 157.249918 120.371419a438.074416 438.074416 0 0 0 122.984524 41.68324 399.636483 399.636483 0 0 0 50.871255 7.755022 48.553177 48.553177 0 0 1 16.47942 2.149489z" fill="#FEFEFE" p-id="17915"></path><path d="M82.040824 307.250576a185.446164 185.446164 0 0 1 21.073428-27.690484 269.107672 269.107672 0 0 1 22.506421-21.410602c18.50247-14.20349 37.468554-27.859071 59.553506-36.288443a23.897267 23.897267 0 0 1-0.716496 6.659203 695.423115 695.423115 0 0 0-21.747778 95.336187c-3.919658 26.552519-5.436944 53.189332-6.912084 80.079026-0.758643 13.866315 0.80079 27.648337 1.390846 41.472505 0.632203 14.540665 1.938755 29.123477 3.877511 43.537702 2.402371 17.870267 5.479091 35.614093 9.356602 53.189332a630.474811 630.474811 0 0 0 30.851498 98.834376 579.856437 579.856437 0 0 0 35.150478 71.649654 633.635825 633.635825 0 0 0 54.790912 79.826144 702.166612 702.166612 0 0 0 57.656898 61.365822 482.117879 482.117879 0 0 0 45.897926 39.070135 609.401383 609.401383 0 0 0 164.625617 89.014158 582.048074 582.048074 0 0 0 88.086928 23.812974c2.14949 0.421469 5.184063 0.295028 5.521238 3.708923a11.421798 11.421798 0 0 1-2.191637 1.011525 455.186039 455.186039 0 0 1-69.458017 11.25321c-6.322028 0.590056-12.854791 0-18.966085 2.233783h-11.00033a29.502799 29.502799 0 0 0-18.376029 0h-35.740533a48.553177 48.553177 0 0 0-16.47942-2.27593 399.636483 399.636483 0 0 1-50.871255-7.755021c-0.295028-2.823839-2.528811-3.877511-4.678301-5.184064-11.506092-6.869937-23.096477-13.613434-34.433981-20.778399A668.111953 668.111953 0 0 1 294.123801 913.02733a652.854791 652.854791 0 0 1-61.534409-65.327626 671.694435 671.694435 0 0 1-56.392493-79.404676 705.53836 705.53836 0 0 1-50.154758-99.761607 685.392163 685.392163 0 0 1-34.054659-109.918999 647.628581 647.628581 0 0 1-13.697728-93.060257c-0.547909-7.923609-0.252881-15.889365-1.180112-23.728679a362.462957 362.462957 0 0 1-0.716496-56.181759c0.885084-22.211393 2.697399-44.464932 5.731972-66.549884 0.505762-3.877511 2.95028-7.923609-0.084294-11.843267z" fill="#F92432" p-id="17916"></path><path d="M1003.033909 460.370102a207.025354 207.025354 0 0 1 3.456043 27.859072c0.210734 1.854462-0.885084 4.214686 1.348699 5.479091v52.641422c-0.885084 0.337175-1.011525 1.095818-1.306553 1.854462-2.27593 6.027-0.758643 12.391176-1.643727 18.586763a396.686203 396.686203 0 0 1-14.034903 64.611129c-5.268357 16.437274-9.904511 33.211722-18.123148 48.553178a13.149819 13.149819 0 0 0-8.134343 1.854462 373.083964 373.083964 0 0 1-36.288442 15.931511c-17.870267 5.858413-36.246296 10.241686-54.495884 14.962134a11.168917 11.168917 0 0 0-7.923609 5.816266c-3.07672 5.605532-5.394797 11.758973-11.421798 15.383602-10.115245 6.111294-21.874218 8.007903-32.284491 13.191966a127.409944 127.409944 0 0 1-22.506421 6.574909 192.611129 192.611129 0 0 1-37.721436 6.785644 28.406981 28.406981 0 0 0-20.272637 10.536714c-6.406322 7.459993-12.644057 16.100099-24.52947 14.034903-4.804742-0.80079-9.567336-1.601581-14.372078-2.318077a360.94567 360.94567 0 0 1-82.439249-22.464274c-2.107343-0.842937-4.214686-1.770168-4.214686-4.594008a305.143233 305.143233 0 0 0 37.93217-20.10405 214.190319 214.190319 0 0 0 51.419164-45.897925l7.755021-8.85084a38.185051 38.185051 0 0 0 7.502141 2.486665 334.688179 334.688179 0 0 0 54.790912 2.570958c8.724399-0.337175 10.073098-1.643727 12.264735-10.283833a332.960158 332.960158 0 0 0 7.62858-46.10866 256.084294 256.084294 0 0 0 0.295028-48.553177 355.930194 355.930194 0 0 0-10.57886-54.200856 19.851169 19.851169 0 0 1 4.214685 0.463615 293.552848 293.552848 0 0 1 44.169905 20.483372 23.096477 23.096477 0 0 0 4.214685 2.149489c1.306553 0.379322 3.034574 0.716497 3.961805-0.632202s-0.252881-2.360224-0.80079-3.371749c-3.75107-6.743497-7.628581-13.4027-11.379651-20.146197-6.574909-11.716826-15.425749-21.874218-22.590715-33.169575a68.572934 68.572934 0 0 0 12.054001-0.885084c17.111623-4.214686 33.717484-9.77807 50.576226-15.172868a201.082647 201.082647 0 0 1 28.196247 37.342114 4.594007 4.594007 0 0 0 6.912084 2.14949c10.494567-4.804742 21.073428-9.314455 31.736582-14.07705 16.858742-7.586434 33.717484-15.299309 50.576227-22.92789 0.885084 6.954231-1.264406 14.07705 1.306552 21.073428-0.337175 11.042476-0.716497 22.084952-1.053671 33.127429-1.517287 21.747777-5.015476 43.284821-8.429371 64.86401A241.248601 241.248601 0 0 0 997.976287 534.127099a36.414883 36.414883 0 0 0 1.222259-4.55186c1.222259-9.103721 2.360224-18.207442 3.540335-27.269016 0.084294-13.992756 0.210734-27.985512 0.295028-41.936121z" fill="#FEB202" p-id="17917"></path><path d="M972.73032 679.955219c8.218637-15.341455 12.854791-32.115904 18.123148-48.553178a396.686203 396.686203 0 0 0 14.034903-64.611129c0.885084-6.195588-0.632203-12.644057 1.643727-18.586763 0.295028-0.758643 0.421469-1.517287 1.306553-1.854462v472.339809c0 4.214686-0.842937 5.310504-5.310504 5.310504H562.051361c6.111294-2.360224 12.644057-1.643727 18.966085-2.233783a455.186039 455.186039 0 0 0 69.542311-11.379651 11.421798 11.421798 0 0 0 2.191637-1.011525 8.682252 8.682252 0 0 0 1.812315 0c34.096806-9.314455 66.676325-21.832071 94.788277-44.001317a56.392493 56.392493 0 0 0 13.782022-13.613434c0.927231 0 1.264406-0.463615 1.306553-1.306553l1.643727-1.306552a72.281857 72.281857 0 0 0 16.858742-22.084953l1.643728-1.222258c4.636154-2.444518 9.230161-4.973329 13.950609-7.249259a389.605532 389.605532 0 0 0 44.886401-25.540995A271.973658 271.973658 0 0 0 907.824163 838.848864c1.517287-1.770168 3.708923-3.287455 3.835364-5.984853 2.444518-0.67435 3.329602-2.908133 4.636154-4.636155a142.287784 142.287784 0 0 0 14.119196-22.548567 116.283174 116.283174 0 0 0 13.866316-43.95917 15.594337 15.594337 0 0 1 0.590056-4.214686c1.728021-8.007903 2.95028-16.057952-0.67435-23.897267 2.107343-3.456042 4.214686-6.827791 6.322029-10.32598 8.050049-14.07705 15.425749-28.575568 22.211392-43.326967z" fill="#FEFEFE" p-id="17918"></path><path d="M532.759296 1023.873559a29.502799 29.502799 0 0 1 18.376029 0z" fill="#FE3C24" p-id="17919"></path><path d="M987.018104 478.914718c-16.858742 7.628581-33.717484 15.341455-50.576226 22.92789-10.536714 4.762595-21.073428 9.272308-31.736582 14.07705a4.594007 4.594007 0 0 1-6.912085-2.14949 201.082647 201.082647 0 0 0-28.196246-37.342114 30.55647 30.55647 0 0 0-3.034574-4.55186 580.615081 580.615081 0 0 0-56.308198-52.388542c-24.993085-20.10405-51.081989-38.817254-74.937109-60.354297A394.663154 394.663154 0 0 1 679.34606 298.104709c-35.361212-48.932499-45.223576-103.723411-38.480079-162.307541a324.867962 324.867962 0 0 1 21.073427-81.174843 155.943365 155.943365 0 0 1 12.644057-27.226869 110.635496 110.635496 0 0 0 6.617056 13.950609 270.582812 270.582812 0 0 0 70.595983 75.86434c27.269015 20.609812 54.790912 40.629569 79.657557 64.316101a6.617056 6.617056 0 0 0 5.436944 2.318077c2.908133 1.390846 2.613105 5.605532 5.858413 6.743497a61.871584 61.871584 0 0 0 12.138295 12.644057 7.417847 7.417847 0 0 0 6.237734 6.153441 5.310504 5.310504 0 0 0 4.846889 4.931182l1.222258 1.264406a2.486664 2.486664 0 0 0 1.306553 2.528811 14.709253 14.709253 0 0 0 4.720448 4.973329 4.214686 4.214686 0 0 0 2.655252 3.708923 66.086269 66.086269 0 0 0 9.609483 10.958183 4.214686 4.214686 0 0 0 2.613105 3.708923l2.27593 2.444517a7.080672 7.080672 0 0 0 1.938755 3.666777A502.390517 502.390517 0 0 1 945.714186 332.243662c0.842937 1.770168 1.348699 3.919658 3.540336 4.720447a431.288772 431.288772 0 0 1 27.016134 75.86434 327.691801 327.691801 0 0 1 9.946658 57.446164 28.364834 28.364834 0 0 0 0.927231 4.214686c-0.126441 1.517287-0.126441 2.992427-0.126441 4.425419z" fill="#FEE745" p-id="17920"></path><path d="M418.709905 97.44353a455.691801 455.691801 0 0 1 205.423774 3.287455 288.158051 288.158051 0 0 0-20.230491 83.029305c-4.509714 58.794863 13.486994 111.014817 47.288772 158.430029a351.251893 351.251893 0 0 0 45.813632 49.817584c-5.521238 0-10.831742 1.980902-16.395127 1.348699-1.180112 0-2.570958 0-3.034573 1.348699s0.379322 2.360224 1.306552 3.203161a58.373395 58.373395 0 0 0 4.594007 3.961805 67.434969 67.434969 0 0 1 14.709253 13.613434 170.48403 170.48403 0 0 1 24.318736 53.526506 161.000988 161.000988 0 0 1 6.069147 28.491275c0.379322 3.456042-0.379322 5.942707-4.720448 6.027a340.082977 340.082977 0 0 1-68.657228-4.214685 302.951597 302.951597 0 0 1-169.556799-92.723082c-2.992427-3.287455-3.582483-5.352651 0.842937-8.429372 18.839644-13.571287 28.659862-31.694435 26.426078-55.465261 0-2.023049 0.210734-4.214686 0.295028-6.111294 0.505762-9.398749-0.842937-11.506092-9.862364-14.835693a71.986829 71.986829 0 0 0-18.333882-4.214686 360.482055 360.482055 0 0 0-40.376687-4.973329 32.495226 32.495226 0 0 0-9.862365-1.685874 30.893645 30.893645 0 0 0-1.222258-5.268357 305.353968 305.353968 0 0 1-13.866316-49.648996 22.084952 22.084952 0 0 1 5.394798-21.073428 15.594337 15.594337 0 0 0 3.161014-14.793546 102.416859 102.416859 0 0 0-3.245308-10.410273 135.670728 135.670728 0 0 1 21.073428-18.165295c1.053671-0.80079 3.540336-1.643727 2.781692-2.613105-3.07672-3.961804 1.053671-3.287455 2.360224-3.919657 3.666776-1.854462 7.459993-3.329602 11.674679-5.184064a27.943365 27.943365 0 0 0-12.644057-4.467566c-15.973658-2.065196-31.610142 1.095818-47.288771 3.498189-0.758643-16.858742 3.540336-32.916694 6.869937-49.143234 2.27593-10.958182 7.249259-21.242015 8.892986-32.242344z" fill="#0080FC" p-id="17921"></path><path d="M82.040824 307.250576c2.908133 3.919658 0.590056 7.965756 0 11.843267-3.034574 22.084952-4.846888 44.338492-5.731972 66.549884a362.462957 362.462957 0 0 0 0.716496 56.181759c0.927231 7.839315 0.632203 15.805071 1.180112 23.728679a647.628581 647.628581 0 0 0 13.697728 93.060257 685.392163 685.392163 0 0 0 34.05466 109.918999A705.53836 705.53836 0 0 0 176.112606 768.295028a671.694435 671.694435 0 0 0 56.476786 79.404676A652.854791 652.854791 0 0 0 294.123801 912.985183a668.111953 668.111953 0 0 0 96.684886 74.894962c11.337504 7.164965 22.927889 13.908462 34.433981 20.7784 2.14949 1.306553 4.214686 2.360224 4.678301 5.184063a438.074416 438.074416 0 0 1-122.984524-41.68324c-59.51136-30.725058-113.290747-69.458018-157.249918-120.371419-61.450115-71.186039-100.899572-152.866645-114.217978-246.516958a432.005268 432.005268 0 0 1-4.214686-71.902535 9.019427 9.019427 0 0 0-0.80079-4.214686A382.777741 382.777741 0 0 0 17.640429 572.059269c2.065196-56.266052 9.314455-111.604873 28.870596-164.920645-8.935133 10.831742-14.624959 23.517945-22.25354 34.98189a569.23543 569.23543 0 0 1 30.387883-86.021732 276.314784 276.314784 0 0 1 27.395456-48.848206z" fill="#D71358" p-id="17922"></path><path d="M697.005592 392.007903a351.251893 351.251893 0 0 1-45.813632-49.817584c-33.717484-47.415212-51.798485-99.635166-47.288772-158.430029a288.158051 288.158051 0 0 1 20.230491-83.029305A405.284162 405.284162 0 0 1 684.361535 1.854462c2.781692 20.7784 13.486994 36.414883 25.077379 51.419163 25.751729 33.296016 55.718143 62.630227 86.401054 91.290089a39.786632 39.786632 0 0 0 6.322028 6.448469c11.421798 11.12677 24.065854 21.073428 34.518275 33.043135a6.617056 6.617056 0 0 1-5.436944-2.318077c-24.698057-23.686533-52.388541-43.706289-79.657557-64.316102a270.582812 270.582812 0 0 1-70.595983-75.86434 110.635496 110.635496 0 0 1-6.617056-13.950609 155.943365 155.943365 0 0 0-12.644057 27.226869 324.867962 324.867962 0 0 0-21.073428 81.174844c-6.743497 58.584129 3.118867 113.375041 38.480079 162.30754a394.663154 394.663154 0 0 0 56.097465 60.9865c23.85512 21.537043 49.944024 40.250247 74.937109 60.354297a580.615081 580.615081 0 0 1 56.308199 52.388541 30.55647 30.55647 0 0 1 3.034573 4.55186c-16.858742 5.394797-33.422456 11.000329-50.576226 15.172868a68.572934 68.572934 0 0 1-12.054001 0.885084c-8.050049-9.061574-15.720777-18.586763-24.276589-27.184721a659.724728 659.724728 0 0 0-53.526506-46.993744c-2.360224-1.896608-4.214686-6.027-8.429371-4.804742 0-0.927231-0.210734-1.432993-1.095818-1.685874a246.559104 246.559104 0 0 0-22.548568-19.977609z" fill="#FDE301" p-id="17923"></path><path d="M185.005592 221.861047c-22.084952 8.429371-41.051037 22.084952-59.553507 36.288443a269.107672 269.107672 0 0 0-22.506421 21.410602 268.475469 268.475469 0 0 1 20.314785-102.880474c4.214686-10.410273 11.168917-19.387554 16.521567-29.207771 1.432993-2.697399 2.613105-1.938755 3.835364 0l-0.80079-0.295028v0.716497l0.885084-0.547909c0-0.337175 0.252881-0.463615 0.547909-0.337175 2.865986 0 3.413895 2.360224 4.214685 4.509713 1.559434 3.961804 3.329602 7.839315 4.931182 11.758973a11.80112 11.80112 0 0 0 11.421798 7.333553 109.581824 109.581824 0 0 1 21.621337 2.27593 220.006585 220.006585 0 0 0 17.701679 25.793876 15.67863 15.67863 0 0 0 5.22621 4.889035l6.57491 6.996378a249.256503 249.256503 0 0 0-30.935792 11.295357z" fill="#D71358" p-id="17924"></path><path d="M283.165618 150.084952a362.462957 362.462957 0 0 1 68.193612-32.453078c2.739546 2.318077 1.47514 5.057623 0.927231 7.797168a311.08594 311.08594 0 0 0-7.881462 67.772143 52.00922 52.00922 0 0 1-1.053671 13.27626l-7.50214 6.82779a20.019756 20.019756 0 0 0-3.582483 3.161015c-2.402371 3.456042-5.09977 3.456042-8.85084 2.107342a189.66085 189.66085 0 0 0-36.541323-8.892986l-6.111294-1.47514c-0.421469-8.682252 1.896608-17.195917 1.264405-25.920316a125.260454 125.260454 0 0 1 0.758644-13.782022c0.084294-6.111294 2.360224-12.264735 0.379321-18.418176z" fill="#154AC6" p-id="17925"></path><path d="M343.140594 206.477445a52.00922 52.00922 0 0 0 1.053671-13.27626 311.08594 311.08594 0 0 1 7.881462-67.898584c0.547909-2.739546 1.812315-5.479091-0.927231-7.797168a359.934146 359.934146 0 0 1 67.434969-20.146197c-1.643727 11.084623-6.617056 21.073428-8.85084 32.200198-3.329602 16.226539-7.628581 32.326638-6.869937 49.143233a207.994732 207.994732 0 0 0-27.058281 12.264735c-0.842937 0.463615-2.570958 1.053671-2.739546 0.842937-2.908133-4.214686-5.268357-0.67435-7.50214 0.590056a67.182088 67.182088 0 0 0-19.050379 14.962134c-2.613105 3.456042-2.402371 0.042147-3.371748-0.885084z" fill="#045BE0" p-id="17926"></path><path d="M283.165618 150.084952c2.191636 6.153441 0 12.306882-0.379321 18.418176a125.260454 125.260454 0 0 0-0.758644 13.782022c0.632203 8.724399-1.685874 17.238064-1.264405 25.920316-13.065525 0-26.088904-2.739546-39.196576-0.842937a126.862035 126.862035 0 0 0-25.540994 3.245308l-6.57491-6.996378a412.491274 412.491274 0 0 1 73.71485-53.526507z" fill="#2E309F" p-id="17927"></path><path d="M836.680271 184.055318c-10.45242-12.138294-23.096477-21.916365-34.518275-33.043135a39.786632 39.786632 0 0 1-6.322028-6.448469c4.214686-16.858742 9.525189-33.085282 21.073428-47.288772 4.214686 21.368456 16.35298 38.185051 26.8054 55.718143 3.203161 5.436944 6.574909 10.789595 9.862364 16.142246-3.161014 0.337175-3.245308 3.034574-4.214686 5.22621-2.318077 5.479091-2.655252 11.843266-7.038524 16.437274-2.823839-1.137965-2.823839-5.352651-5.647679-6.743497z" fill="#FD9101" p-id="17928"></path><path d="M186.227851 172.928548a109.581824 109.581824 0 0 0-21.621337-2.27593 11.80112 11.80112 0 0 1-11.421798-7.333553c-1.601581-3.919658-3.371748-7.797168-4.931182-11.758973-0.80079-2.14949-1.348699-4.214686-4.214685-4.509713 5.689825-13.529141 12.138294-26.468225 25.793875-35.740534a146.50247 146.50247 0 0 0 4.804742 39.955219c0.547909 1.980902 1.180112 3.877511 1.643727 5.858413a10.578861 10.578861 0 0 0 6.111294 8.429371c2.065196 0.885084 2.697399 4.846888 3.835364 7.3757z" fill="#F92432" p-id="17929"></path><path d="M842.538684 190.798815c4.214686-4.594007 4.720448-10.958182 7.038525-16.437274 0.927231-2.191636 1.011525-4.889035 4.214685-5.22621 14.962134 21.958512 29.502799 44.212051 42.694765 67.434969-1.517287 2.95028-2.444518 6.448469-6.279882 7.50214l-2.27593-2.444518c0-1.854462 0-3.666776-2.613105-3.708923a66.086269 66.086269 0 0 1-9.609483-10.958182c0-1.896608 0-3.708923-2.655252-3.708924a14.414225 14.414225 0 0 1-4.720448-4.846888 2.360224 2.360224 0 0 0-1.306552-2.486665l-1.222259-1.264405a5.015476 5.015476 0 0 0-4.846888-4.931182 7.080672 7.080672 0 0 0-6.237735-6.153441 61.871584 61.871584 0 0 1-12.180441-12.770497z" fill="#FEB202" p-id="17930"></path><path d="M890.080337 243.903852c3.835364-1.053671 4.762595-4.55186 6.279881-7.50214a702.040171 702.040171 0 0 1 44.296345 81.048403 113.417188 113.417188 0 0 1 8.429371 19.513994c-2.191636-0.80079-2.697399-2.95028-3.540335-4.720447a502.390517 502.390517 0 0 0-53.442213-84.71518 7.080672 7.080672 0 0 1-2.023049-3.62463z" fill="#FDE301" p-id="17931"></path><path d="M987.018104 478.914718v-4.214685l14.87784-18.881791a6.364175 6.364175 0 0 1 1.222259 4.678301c0 13.950609-0.210734 27.943365-0.295028 41.936121l-14.540665-2.486665c-2.655252-6.954231-0.505762-14.07705-1.264406-21.031281z" fill="#FD9101" p-id="17932"></path><path d="M215.73065 210.607837a126.862035 126.862035 0 0 1 25.540994-3.245308 19.682581 19.682581 0 0 1-0.716496 4.762594c-6.237735 15.67863-11.25321 31.778729-15.931512 48.005269a585.504116 585.504116 0 0 0-21.073428 145.195917c-0.252881 8.429371 0.716497 17.069476 0.969378 25.540994 0.505762 16.47942 1.896608 32.790254 3.708923 49.143234a550.100757 550.100757 0 0 0 16.35298 82.144221c0.67435 2.402371 0.67435 5.647679 4.42542 7.249259 2.360224-26.678959 8.429371-51.377017 25.962463-71.986829a94.703984 94.703984 0 0 1 24.824498-18.081001c5.858413-2.655252 11.885413-4.846888 17.870267-7.249259l20.778399-2.613105a8.050049 8.050049 0 0 1-2.739545 7.080672 42.146855 42.146855 0 0 0-8.892987 11.506091c-4.214686 9.65163-10.073098 18.50247-15.257161 27.690484a61.492262 61.492262 0 0 0-9.061574 24.318736 58.457689 58.457689 0 0 1-4.636154 21.494896 179.629898 179.629898 0 0 0-17.954561 83.745802c0.210734 6.785644-0.421469 14.119197 2.739546 20.356931a513.559434 513.559434 0 0 0 29.207771 50.576227 560.553177 560.553177 0 0 0 93.102403 109.160355 594.69213 594.69213 0 0 0 59.595654 47.246625 540.196246 540.196246 0 0 0 93.861047 51.882779 572.607178 572.607178 0 0 0 120.371419 36.836352 9.440896 9.440896 0 0 1 7.586434 5.057622l-12.644057 4.551861a277.242015 277.242015 0 0 0 51.081989-2.191637 193.327626 193.327626 0 0 0 42.863352-10.621007c5.22621-2.023049 9.609483-6.027 15.467896-6.448469a56.392493 56.392493 0 0 1-13.782022 13.613434c-28.111953 22.169246-60.691472 34.686862-94.788277 44.001317a8.682252 8.682252 0 0 1-1.812315 0c-0.337175-3.413895-3.371748-3.287455-5.521238-3.708923a582.048074 582.048074 0 0 1-88.086928-23.812973 609.401383 609.401383 0 0 1-164.625618-89.014159 482.117879 482.117879 0 0 1-45.897925-39.070135 702.166612 702.166612 0 0 1-57.656898-61.365822 633.635825 633.635825 0 0 1-54.790912-79.826144 579.856437 579.856437 0 0 1-35.150478-71.649654 630.474811 630.474811 0 0 1-30.851498-98.834376c-3.877511-17.575239-6.954231-35.319065-9.356602-53.189332-1.938755-14.414225-3.245308-28.997037-3.877511-43.537701-0.590056-13.824169-2.14949-27.60619-1.390846-41.472506 1.47514-26.721106 2.992427-53.357919 6.912084-80.079025a695.423115 695.423115 0 0 1 21.747778-95.336187 23.897267 23.897267 0 0 0 0.716496-6.659204 249.256503 249.256503 0 0 1 30.809352-11.168916z" fill="#FE3C24" p-id="17933"></path><path d="M944.281193 761.720119a116.283174 116.283174 0 0 1-14.287784 44.212051 142.287784 142.287784 0 0 1-14.119197 22.548568c-1.306553 1.728021-2.191636 3.961804-4.636154 4.636154-8.092196-0.632203-15.55219 2.655252-23.222917 4.214685-23.981561 5.057623-48.005268 9.862364-72.324004 12.939085-7.333553 0.927231-15.130721 1.222259-20.483372 7.712874l-15.889364 19.218966a8.892986 8.892986 0 0 1-7.965756 3.62463c-4.214686-0.295028-8.134343 0-12.222588 0a225.106355 225.106355 0 0 1-46.150807-2.697399c-8.935133-1.685874-17.95456-3.034574-26.889694-4.594007a455.186039 455.186039 0 0 1-74.810668-19.176819 545.043135 545.043135 0 0 1-73.546263-34.012513 475.795851 475.795851 0 0 1-75.485018-51.250576c-2.739546-2.191636-6.153441-4.214686-6.617056-8.429371a312.434639 312.434639 0 0 0 53.273625 10.747448 226.876523 226.876523 0 0 0 51.798485-1.432993 271.088574 271.088574 0 0 0 55.423115-14.329931c0 2.823839 2.14949 3.75107 4.214686 4.594008a360.94567 360.94567 0 0 0 82.439249 22.548567c4.804742 0.716497 9.567336 1.517287 14.372078 2.318077 12.011854 2.065196 18.123148-6.574909 24.52947-14.034903a28.406981 28.406981 0 0 1 20.272637-10.536713 192.611129 192.611129 0 0 0 37.721436-6.785644 127.409944 127.409944 0 0 0 22.506421-6.57491c10.410273-5.184063 22.169246-7.080672 32.284491-13.191965 6.027-3.62463 8.429371-9.77807 11.421798-15.383603a11.168917 11.168917 0 0 1 7.923609-5.816266c18.249588-4.720448 36.625617-9.103721 54.495884-14.962133a373.083964 373.083964 0 0 0 36.288442-15.931512 13.149819 13.149819 0 0 1 8.134343-1.854461c-6.827791 14.751399-14.161343 29.249918-22.127099 43.411261-2.023049 3.498189-4.214686 6.869937-6.322028 10.325979l-15.931511 24.52947a732.175173 732.175173 0 0 1-59.890682 71.649655 8.429371 8.429371 0 0 0 4.214686-0.927231 196.025025 196.025025 0 0 0 45.602897-31.062233 81.933487 81.933487 0 0 0 22.337834-30.851498z" fill="#FD9101" p-id="17934"></path><path d="M616.125776 755.650971a271.088574 271.088574 0 0 1-55.296674 14.161344 226.876523 226.876523 0 0 1-51.798485 1.432993 312.434639 312.434639 0 0 1-53.273626-10.747448c-8.429371-3.245308-17.195917-6.111294-25.288113-9.778071a164.794205 164.794205 0 0 1-74.979256-65.369773 13.866315 13.866315 0 0 1 2.992427 0.295028 228.52025 228.52025 0 0 0 54.200856 10.536714 105.74646 105.74646 0 0 0 30.935792-0.716496 125.934804 125.934804 0 0 0 57.867633-15.425749 53.779388 53.779388 0 0 0 10.831741-6.111294l21.832072-11.337504c3.919658 4.214686 9.567336 3.708923 14.582812 4.973328 1.390846 0.337175 3.07672 0.337175 3.329601 2.02305s-1.601581 2.191636-2.823839 2.613105a130.360224 130.360224 0 0 0-23.349358 12.981231c-1.306553 0.758643-3.371748 1.180112-3.287455 3.203161s2.318077 2.655252 3.919658 3.287455a424.587422 424.587422 0 0 0 46.90945 15.00428 597.178795 597.178795 0 0 0 78.013829 14.667106 11.337504 11.337504 0 0 0 8.429371-2.191636 95.715509 95.715509 0 0 0 21.916365-22.717156c6.827791-9.609483 14.751399-8.935133 23.981561-6.785643a214.190319 214.190319 0 0 1-51.714192 45.897925 305.143233 305.143233 0 0 1-37.93217 20.10405z" fill="#4A1575" p-id="17935"></path><path d="M705.47711 689.648996c-9.230161-2.14949-17.15377-2.823839-23.981561 6.785643a95.715509 95.715509 0 0 1-21.916365 22.717156 11.337504 11.337504 0 0 1-8.429371 2.191636 597.178795 597.178795 0 0 1-78.013829-14.667106 424.587422 424.587422 0 0 1-46.90945-15.00428c-1.601581-0.632203-3.835364-1.011525-3.919658-3.287455s1.980902-2.444518 3.287455-3.203161a130.360224 130.360224 0 0 1 23.349358-12.981231c1.222259-0.421469 3.118867-0.758643 2.823839-2.613105s-1.938755-1.685874-3.329601-2.02305c-5.015476-1.264406-10.663154-0.632203-14.582812-4.973328 15.215015-8.724399 30.261442-16.268686 49.18538-11.337505 12.644057 3.245308 21.747777-8.429371 18.418176-21.073427a47.752387 47.752387 0 0 0-8.429371-13.950609 42.821205 42.821205 0 0 1 14.414224 1.896608 411.521897 411.521897 0 0 0 104.987817 11.674679c4.214686 0 5.394797-1.601581 6.57491-5.352651 3.371748-10.663154 5.731972-21.57919 8.429371-32.453078 0.632203-2.655252 1.770168-5.09977 4.467566-4.931182 7.839315 0.463615 15.130721-3.413895 22.970037-2.528812a167.027988 167.027988 0 0 1-7.24926 29.713533 232.14488 232.14488 0 0 1-34.560421 66.549885z" fill="#2E309F" p-id="17936"></path><path d="M713.063544 680.798156a232.14488 232.14488 0 0 0 34.518275-66.592032 167.027988 167.027988 0 0 0 7.249259-29.713533 225.612117 225.612117 0 0 0-0.716497-88.297662 23.222917 23.222917 0 0 0-0.252881-2.402371 262.195588 262.195588 0 0 0-21.916365-62.166611c3.371748 0.67435 4.720448 3.582483 6.57491 5.900559a286.092855 286.092855 0 0 1 46.361541 89.224893 355.930194 355.930194 0 0 1 10.57886 54.200857 256.084294 256.084294 0 0 1-0.295028 48.553177 332.960158 332.960158 0 0 1-7.62858 46.10866c-2.191636 8.640105-3.540336 9.946658-12.264735 10.283833a334.688179 334.688179 0 0 1-54.790912-2.570959 38.185051 38.185051 0 0 1-7.417847-2.528811z" fill="#FDE301" p-id="17937"></path><path d="M785.09252 526.709253a286.092855 286.092855 0 0 0-46.361541-89.224893c-1.854462-2.318077-3.203161-5.22621-6.57491-5.90056 0.295028-1.306553 0-2.233783-1.475139-2.486665h0.252881l-1.180112-1.643727c-2.992427-4.678301-5.984853-9.356602-8.935134-14.034903 4.214686-1.222259 6.069147 2.908133 8.429371 4.804742a659.724728 659.724728 0 0 1 53.526507 46.993743c8.429371 8.429371 16.226539 18.123148 24.276589 27.184722 7.164965 11.295357 16.015805 21.452749 22.590714 33.169575 3.75107 6.743497 7.628581 13.4027 11.379651 20.146197 0.547909 1.011525 1.601581 2.27593 0.80079 3.371749s-2.655252 1.011525-3.961804 0.632203a23.096477 23.096477 0 0 1-4.214686-2.14949 293.552848 293.552848 0 0 0-44.169904-20.483372 19.851169 19.851169 0 0 0-4.383273-0.379321z" fill="#FD9101" p-id="17938"></path><path d="M997.976287 534.127099a241.248601 241.248601 0 0 1-19.092526 63.683899c3.245308-21.57919 6.743497-43.116233 8.429371-64.864011z" fill="#FE6C0F" p-id="17939"></path><path d="M997.976287 534.127099l-10.831742-1.180112c0.337175-11.042476 0.716497-22.084952 1.053671-33.127428l14.540665 2.486664c-1.180112 9.061574-2.318077 18.165295-3.540335 27.269016a36.414883 36.414883 0 0 1-1.222259 4.55186z" fill="#ED7922" p-id="17940"></path><path d="M666.364828 966.469542a9.440896 9.440896 0 0 0-7.586434-5.057622 572.607178 572.607178 0 0 1-120.371419-36.836352 540.196246 540.196246 0 0 1-93.861047-51.882779 594.69213 594.69213 0 0 1-59.595654-47.246625 560.553177 560.553177 0 0 1-93.102403-109.160356 513.559434 513.559434 0 0 1-29.207771-50.576226c-3.161014-6.237735-2.528811-13.571287-2.739546-20.356931a179.629898 179.629898 0 0 1 17.954561-83.745802 58.457689 58.457689 0 0 0 4.636154-21.494896 61.492262 61.492262 0 0 1 9.061574-24.318736c5.184063-9.188014 10.916036-18.038854 15.257161-27.690484a42.146855 42.146855 0 0 1 8.892987-11.506092 8.050049 8.050049 0 0 0 2.739545-7.080671 176.300296 176.300296 0 0 1 18.881792 0c4.214686 0.463615 9.188014-0.590056 12.896937 2.992426a31.23082 31.23082 0 0 0-17.870266 15.636484 53.779388 53.779388 0 0 0-0.295028 50.576226 20.399078 20.399078 0 0 1-1.390847 4.003952 235.727363 235.727363 0 0 0-30.345735 84.293711 16.184392 16.184392 0 0 0 6.279881 17.111623 93.523872 93.523872 0 0 0 43.706289 17.322357l16.563714 5.816266c1.432993 0.505762 3.961804 0.885084 1.770168 3.034574-4.889035 4.804742 1.559434 3.961804 2.486665 4.214686 6.237735 1.854462 12.644057 3.203161 19.471847 4.804741a6.322028 6.322028 0 0 1-6.322028 1.601581c-8.429371-0.632203-16.858742-1.517287-25.288114-2.318077a48.974646 48.974646 0 0 1-13.107672-0.927231c-1.728021-0.67435-2.613105 0.337175-2.823839 2.065196a104.94567 104.94567 0 0 1-21.621337-11.12677c-1.685874-1.053671-3.708923-3.161014-5.394797-1.728021s0.716497 3.540336 1.264405 5.310504a8.766546 8.766546 0 0 0 1.264406 2.065195 514.402371 514.402371 0 0 0 59.6378 80.711229 557.518604 557.518604 0 0 0 61.829437 58.752716 492.148831 492.148831 0 0 0 62.883109 42.863352 509.134014 509.134014 0 0 0 89.140599 41.051037 501.54758 501.54758 0 0 0 86.611788 21.874218 396.475469 396.475469 0 0 0 44.63352 5.184064 11.716826 11.716826 0 0 0 8.429371-2.570959c5.563385-4.720448 11.042476-9.567336 16.858742-14.161343a33.085282 33.085282 0 0 1 17.617386-7.670728c21.326309-2.023049 42.694765-3.919658 63.936779-7.207112 4.214686-0.632203 8.682252-3.161014 12.981232 0a389.605532 389.605532 0 0 1-44.886401 25.540994c-4.720448 2.27593-9.314455 4.804742-13.950609 7.24926-0.842937 0-1.47514 0.337175-1.643728 1.222258a6.743497 6.743497 0 0 0-4.214685 0.758644c-17.659532 7.797168-35.529799 15.004281-53.779388 21.368455a474.025683 474.025683 0 0 1-58.289101 17.238064z" fill="#FE5618" p-id="17941"></path><path d="M843.002299 893.134014c-4.214686-3.161014-8.892986-0.632203-12.981231 0-21.073428 3.287455-42.610471 5.184063-63.93678 7.207112a33.085282 33.085282 0 0 0-17.617385 7.670728c-5.689825 4.594007-11.168917 9.440896-16.858743 14.161343a11.716826 11.716826 0 0 1-8.429371 2.570958 396.475469 396.475469 0 0 1-44.63352-5.184063 501.54758 501.54758 0 0 1-86.611788-21.874218 509.134014 509.134014 0 0 1-89.140599-41.051037 492.148831 492.148831 0 0 1-62.883108-42.863352 557.518604 557.518604 0 0 1-61.829437-58.752716 514.402371 514.402371 0 0 1-59.637801-80.711229 8.766546 8.766546 0 0 1-1.264405-2.065196c-0.547909-1.770168-3.287455-3.62463-1.264406-5.310503s3.708923 0.67435 5.394798 1.728021a104.94567 104.94567 0 0 0 21.621336 11.12677 64.821864 64.821864 0 0 1 12.180442 5.563384 164.794205 164.794205 0 0 0 74.979255 65.369773c8.429371 3.666776 16.858742 6.532763 25.288114 9.778071 0.463615 4.214686 3.877511 6.195588 6.617056 8.429371a475.795851 475.795851 0 0 0 75.485018 51.250576 545.043135 545.043135 0 0 0 73.546263 34.012512 455.186039 455.186039 0 0 0 74.810668 19.17682c8.935133 1.559434 17.95456 2.908133 26.889694 4.594007a225.106355 225.106355 0 0 0 46.150807 2.697399h12.222588a8.892986 8.892986 0 0 0 7.965756-3.62463l15.889364-19.218966c5.352651-6.490616 13.149819-6.785644 20.483372-7.712875 24.318736-3.07672 48.342443-7.881462 72.324004-12.939084 7.670728-1.601581 15.130721-4.889035 23.222917-4.214686 0 2.697399-2.318077 4.214686-3.835364 5.984854a271.973658 271.973658 0 0 1-64.147514 54.200856z" fill="#FE6C0F" p-id="17942"></path><path d="M666.364828 966.469542a474.025683 474.025683 0 0 0 58.289101-17.195917c18.249588-6.364175 36.119855-13.571287 53.779388-21.368455a6.743497 6.743497 0 0 1 4.214685-0.758644 72.281857 72.281857 0 0 1-16.858742 22.084952l-1.643727 1.306553-1.306553 1.306552c-5.858413 0.421469-10.241686 4.42542-15.467896 6.448469a193.327626 193.327626 0 0 1-42.736911 10.536714 277.242015 277.242015 0 0 1-51.081989 2.191637z" fill="#D71358" p-id="17943"></path><path d="M944.281193 761.720119l-3.582483 5.268356c-4.804742-1.896608-7.333553-6.996378-12.349028-8.429371l15.931511-24.529469c3.62463 7.839315 2.402371 15.889365 0.67435 23.897267a15.594337 15.594337 0 0 0-0.67435 3.793217z" fill="#FE3C24" p-id="17944"></path><path d="M782.521562 927.146526c0-0.885084 0.80079-1.180112 1.643727-1.222259z" fill="#D71358" p-id="17945"></path><path d="M764.18768 950.538031l1.643727-1.306553zM762.965421 951.76029l1.306552-1.306553c-0.042147 0.927231-0.379322 1.348699-1.306552 1.306553z" fill="#FE3C24" p-id="17946"></path><path d="M854.676978 203.485018a7.080672 7.080672 0 0 1 6.237735 6.153441 7.417847 7.417847 0 0 1-6.237735-6.153441zM860.914713 209.596312a5.015476 5.015476 0 0 1 4.846888 4.931182 5.310504 5.310504 0 0 1-4.846888-4.931182zM885.275595 237.750412c2.570958 0 2.613105 1.854462 2.613105 3.708923a4.214686 4.214686 0 0 1-2.613105-3.708923zM873.221595 223.083306c2.570958 0 2.655252 1.812315 2.655252 3.708923a4.214686 4.214686 0 0 1-2.655252-3.708923zM866.98386 215.749753a2.360224 2.360224 0 0 1 1.306553 2.486665 2.402371 2.402371 0 0 1-1.306553-2.486665zM865.761601 214.527494l1.222259 1.264406z" fill="#FDE301" p-id="17947"></path><path d="M720.776418 413.502799c2.95028 4.678301 5.942707 9.356602 8.935134 14.034903 0 0.758643 0.252881 1.517287 1.180112 1.643727h-0.252881c0 1.053671 0.252881 2.107343 1.47514 2.486665a262.195588 262.195588 0 0 1 21.916364 62.166611 23.222917 23.222917 0 0 1 0.252882 2.402371c-6.869937 1.601581-13.739875 3.498189-20.694106 4.762595-3.034574 0.547909-4.214686 1.938755-3.329602 4.214685a59.005598 59.005598 0 0 1 1.180112 12.096148 220.975963 220.975963 0 0 1 0 49.227527 4.214686 4.214686 0 0 1-4.804742 4.214685c-10.283833-0.337175-20.483372 0.927231-30.893645 0.463616a415.146526 415.146526 0 0 1-65.369772-7.586434 364.317419 364.317419 0 0 1-110.298321-42.779058 334.393151 334.393151 0 0 1-53.737241-38.732961 477.987488 477.987488 0 0 1-42.905499-43.28482c-2.191636-2.528811-2.360224-4.594007 1.137965-6.827791 7.417847-4.678301 15.046427-8.892986 22.717155-13.065525 6.027-3.287455 6.237735-6.364175 0.54791-10.241686a7.712875 7.712875 0 0 1-4.509714-7.839315l8.682252-4.720448c7.291406-2.865986 14.287784-6.532763 21.537043-9.483042a50.576227 50.576227 0 0 0 18.839645-11.463945 62.672374 62.672374 0 0 0 20.525518-32.242344c2.233783 23.770826-7.586434 41.893974-26.426078 55.465262-4.42542 3.203161-3.835364 5.268357-0.842937 8.429371a302.951597 302.951597 0 0 0 169.556799 92.723082 340.082977 340.082977 0 0 0 68.657228 4.214685c4.214686 0 5.09977-2.570958 4.720448-6.027a161.000988 161.000988 0 0 0-6.069147-28.491274 170.48403 170.48403 0 0 0-24.318736-53.526507 67.434969 67.434969 0 0 0-14.709253-13.613434 58.373395 58.373395 0 0 1-4.594007-3.961805c-0.927231-0.842937-1.770168-1.854462-1.306552-3.203161s1.854462-1.517287 3.034573-1.348699c5.563385 0.632203 10.873889-1.306553 16.395127-1.348699a246.559104 246.559104 0 0 1 22.759302 19.682581l1.095818 1.685874z" fill="#045BE0" p-id="17948"></path><path d="M350.221265 472.381956c-3.708923-3.582483-8.429371-2.528811-12.896937-2.992427a176.300296 176.300296 0 0 0-18.881792 0l-20.778399 2.613105a167.575897 167.575897 0 0 1-3.413896-31.947316c-0.969378-36.162002-0.716497-72.281857 5.858413-108.106684a503.444188 503.444188 0 0 1 26.468225-93.523873c3.245308-8.429371 8.429371-15.805071 9.061574-25.288113l7.502141-6.827791c0.969378 0.927231 0.758643 4.214686 3.498189 1.011525a67.182088 67.182088 0 0 1 19.050378-14.962134c2.233783-1.264406 4.594007-4.973329 7.502141-0.590056 0 0 1.896608-0.379322 2.739545-0.842937a207.994732 207.994732 0 0 1 27.058281-12.264735c15.67863-2.402371 31.315114-5.563385 47.288772-3.498189a27.943365 27.943365 0 0 1 12.644057 4.467567c-4.214686 1.854462-8.007903 3.329602-11.674679 5.184063-1.306553 0.632203-5.436944 0-2.360224 3.919658 0.758643 0.969378-1.728021 1.812315-2.781692 2.613105a135.670728 135.670728 0 0 0-21.073428 18.165294 143.299309 143.299309 0 0 0-28.28054 36.45703 74.178466 74.178466 0 0 0-9.65163 22.25354 32.03161 32.03161 0 0 0-1.559434 3.203161 209.385578 209.385578 0 0 0-11.969707 81.807047 109.076062 109.076062 0 0 0 7.3757 36.119855 379.026671 379.026671 0 0 0 18.544616 37.004939c-0.337175 2.528811 4.889035 6.153441-1.47514 7.544287a23.433652 23.433652 0 0 0 0.421469 2.781692c0.421469 2.14949 0.927231 4.214686 1.222259 6.490616a81.933487 81.933487 0 0 1-2.992427 35.276918c-3.75107 3.961804-5.310504-3.371748-8.97728-1.517287 1.517287 4.214686 6.279881 7.755021 4.42542 13.992756-9.862364-10.958182-22.548568-15.510043-35.951268-21.832071l2.360224 5.479091-1.222259 1.011525z m36.414883 3.877511l0.421469-0.379322-0.421469-0.379322-0.379321 0.590056z" fill="#FD9101" p-id="17949"></path><path d="M399.448793 426.526177a379.026671 379.026671 0 0 1-18.544617-37.004939 109.076062 109.076062 0 0 1-7.3757-36.119855 209.385578 209.385578 0 0 1 11.969707-81.807046 32.03161 32.03161 0 0 1 1.559434-3.203161 100.014488 100.014488 0 0 0 12.349029 23.602239c9.019427 11.506092 20.230491 18.923938 35.361211 19.008231a32.495226 32.495226 0 0 1 9.862365 1.685875 149.832071 149.832071 0 0 0 1.47514 26.088903c1.47514 19.134672 3.877511 38.185051 5.900559 57.23543l-8.682252 4.720448c-15.67863 6.954231-31.35726 13.655581-43.874876 25.793875z" fill="#FE6C0F" p-id="17950"></path><path d="M452.005921 396.011854c-2.023049-19.050379-4.42542-37.93217-5.900559-57.23543a149.832071 149.832071 0 0 1-1.47514-26.088903 360.482055 360.482055 0 0 1 40.376687 4.973329 153.245966 153.245966 0 0 0 2.613105 27.058281 148.694106 148.694106 0 0 0 4.762595 30.345736 50.576227 50.576227 0 0 1-18.839645 11.463944c-7.249259 2.95028-14.245637 6.617056-21.537043 9.483043z" fill="#FD9101" p-id="17951"></path><path d="M434.894298 311.001646c-15.130721 0-26.341785-7.50214-35.361212-19.008231a100.014488 100.014488 0 0 1-12.349028-23.602239 74.178466 74.178466 0 0 1 9.65163-22.25354 143.299309 143.299309 0 0 1 28.28054-36.45703 102.416859 102.416859 0 0 1 3.245307 10.410273 15.594337 15.594337 0 0 1-3.161014 14.793546 22.084952 22.084952 0 0 0-5.394797 21.073428 305.353968 305.353968 0 0 0 13.866315 49.648996 30.893645 30.893645 0 0 1 1.222259 5.394797z" fill="#045BE0" p-id="17952"></path><path d="M492.382609 375.064867a148.694106 148.694106 0 0 1-4.762595-30.345736 153.245966 153.245966 0 0 1-2.613105-27.058281 71.986829 71.986829 0 0 1 18.333882 4.214685c9.019427 3.329602 10.368126 5.436944 9.862364 14.835693 0 2.065196-0.210734 4.214686-0.295028 6.111294a62.672374 62.672374 0 0 1-20.525518 32.242345z" fill="#FEB202" p-id="17953"></path><path d="M720.860712 413.376358l-1.095818-1.685874c0.885084 0.210734 1.306553 0.758643 1.095818 1.685874z" fill="#FD9101" p-id="17954"></path><path d="M143.575233 147.387554l-0.885084 0.547909v-0.716497l0.80079 0.295028z" fill="#FEFEFE" p-id="17955"></path><path d="M254.842931 497.417188c-17.364504 20.609812-23.602239 45.30787-25.962462 71.986829-3.75107-1.601581-3.75107-4.846888-4.42542-7.249259a550.100757 550.100757 0 0 1-16.35298-82.144221c-1.812315-16.35298-3.203161-32.663813-3.708923-49.143234-0.252881-8.429371-1.222259-16.858742-0.969378-25.540994a585.504116 585.504116 0 0 1 21.073428-145.195917c4.678301-16.226539 9.693777-32.326638 15.931511-48.005269a19.682581 19.682581 0 0 0 0.716496-4.762594c13.107672-1.896608 26.13105 0.885084 39.196576 0.842937l6.111294 1.47514a54.074416 54.074416 0 0 1-1.517287 5.268357 517.268357 517.268357 0 0 0-28.491274 92.723082 505.256503 505.256503 0 0 0-10.368126 88.508396 479.841949 479.841949 0 0 0 3.793217 79.699704c1.264406 7.122819 0.295028 15.004281 4.973328 21.537043z" fill="#FE5618" p-id="17956"></path><path d="M254.842931 497.417188c-4.678301-6.532763-3.708923-14.414225-4.762594-21.663484a479.841949 479.841949 0 0 1-3.793217-79.699703 505.256503 505.256503 0 0 1 10.368126-88.508397 517.268357 517.268357 0 0 1 28.491275-92.723082 54.074416 54.074416 0 0 0 1.517286-5.268357 189.66085 189.66085 0 0 1 36.541324 8.892987c3.75107 1.348699 6.448469 1.348699 8.85084-2.107343a20.019756 20.019756 0 0 1 3.582482-3.161014c-0.421469 9.272308-5.816266 16.858742-9.061574 25.288113a503.444188 503.444188 0 0 0-26.552518 93.355285c-6.574909 35.824827-6.827791 71.944682-5.858413 108.106684a167.575897 167.575897 0 0 0 3.413895 31.947317c-5.984853 2.402371-12.011854 4.594007-17.870267 7.249259a94.703984 94.703984 0 0 0-24.866645 18.291735z" fill="#FE6C0F" p-id="17957"></path><path d="M928.349682 758.22193c5.015476 1.601581 7.544287 6.70135 12.349028 8.429371a81.933487 81.933487 0 0 1-22.337833 30.851498 196.025025 196.025025 0 0 1-45.602898 31.062232 8.429371 8.429371 0 0 1-4.214685 0.927231 732.175173 732.175173 0 0 0 59.806388-71.270332z" fill="#F92432" p-id="17958"></path><path d="M593.071446 616.14488a47.752387 47.752387 0 0 1 8.429372 13.950609c3.329602 12.644057-5.90056 24.403029-18.418176 21.073428-18.923938-4.931182-33.970365 2.613105-49.185381 11.337504l-21.832071 11.337504c-1.812315-3.413895-5.268357-3.287455-8.429371-3.961804-22.422127-4.720448-44.507079-9.65163-57.404017-31.863023-6.912084-11.843266-16.310833-22.211393-21.073428-35.319065a120.455713 120.455713 0 0 0 38.353639-5.394798 311.423115 311.423115 0 0 1 48.637471-12.306881 95.841949 95.841949 0 0 1 80.921962 31.146526z" fill="#FEB202" p-id="17959"></path><path d="M425.031934 602.784327c4.889035 13.107672 14.287784 23.475798 21.073428 35.319065 12.896938 22.211393 34.98189 27.142575 57.404017 31.863022 3.07672 0.67435 6.532763 0.547909 8.429371 3.961805a53.779388 53.779388 0 0 1-10.831742 6.111294c-6.027-4.636154-13.486994-3.75107-20.314784-4.931182-16.521567-2.908133-33.169575-5.352651-49.775437-7.3757-14.667106-1.770168-29.165624-4.973329-44.001317-5.057623 0-2.233783-1.938755-2.233783-3.287455-2.95028-8.429371-4.214686-17.448798-6.532763-24.571616-13.149819-10.368126-9.65163-14.372078-22.927889-20.609813-34.897596a10.410273 10.410273 0 0 1-0.295028-7.164965 150.927889 150.927889 0 0 1 10.030952-28.027659 13.149819 13.149819 0 0 0 1.222259-10.958183 14.709253 14.709253 0 0 1-1.517287-7.080671c10.536714 7.291406 17.364504 19.176819 29.882121 24.108001a80.079025 80.079025 0 0 1 8.724399 4.678301c-1.348699 0.80079-4.42542 0.927231-0.758644 2.992427a101.489628 101.489628 0 0 0 39.196576 12.559763z" fill="#FD9101" p-id="17960"></path><path d="M387.057617 662.675008c14.835693 0 29.502799 3.287455 44.001317 5.057623 16.605861 2.023049 33.253869 4.467567 49.775436 7.3757 6.827791 1.180112 14.287784 0.295028 20.314785 4.931182a125.934804 125.934804 0 0 1-57.825486 15.425749c-0.252881-2.360224-2.065196-1.980902-3.666776-2.191637-7.038525-0.885084-14.034903-1.643727-21.073428-2.739545-16.858742-2.697399-33.717484-5.394797-50.576227-8.429371-3.034574-0.547909-7.080672 0.590056-8.892986-3.456043 8.429371 0.80079 16.858742 1.685874 25.288113 2.318077a6.322028 6.322028 0 0 0 6.322028-1.60158c-6.827791-1.601581-13.234113-2.95028-19.471847-4.804742-0.927231-0.295028-7.3757 0.547909-2.486664-4.214685 2.191636-2.14949-0.337175-2.528811-1.770168-3.034574l-16.563714-5.816266c-0.210734-6.912084 4.003951-5.352651 8.218636-4.467566 9.356602 1.980902 18.881791 3.75107 28.406981 5.647678z m9.567336 18.249589a5.731972 5.731972 0 0 0-1.60158-0.885084c-0.842937 0-1.47514 0.505762-1.137965 1.390846s0.927231 0.590056 1.390846 0.547909 0.758643-0.590056 1.348699-1.053671z" fill="#ED7922" p-id="17961"></path><path d="M359.029958 678.648666c1.812315 4.214686 5.858413 2.908133 8.892987 3.456043 16.858742 3.034574 33.717484 5.731972 50.576226 8.429371 6.996378 1.095818 13.992756 1.854462 21.073428 2.739545 1.601581 0.210734 3.413895 0 3.666776 2.191637a105.74646 105.74646 0 0 1-30.935792 0.716496 228.52025 228.52025 0 0 1-54.200856-10.536714 13.866315 13.866315 0 0 0-2.992426-0.295028 64.821864 64.821864 0 0 0-12.180442-5.563384c0.210734-1.728021 1.095818-2.739546 2.82384-2.065196a48.974646 48.974646 0 0 0 13.276259 0.92723z" fill="#FE3C24" p-id="17962"></path><path d="M593.071446 616.14488a95.841949 95.841949 0 0 0-81.048403-31.062233c-0.337175-4.214686-3.835364-5.057623-6.617056-6.406322a353.022061 353.022061 0 0 1-32.579519-19.261113 477.481725 477.481725 0 0 1-66.88706-53.442212 20.314784 20.314784 0 0 1-4.720448-7.038525c-0.80079-1.770168 0-3.498189 1.601581-2.444518 3.62463 2.444518 3.708923-0.337175 4.678301-2.402371a4.804742 4.804742 0 0 0-2.023049-7.038524c-3.413895-2.27593-7.881462-3.666776-8.97728-8.429372a81.933487 81.933487 0 0 0 2.992426-35.276918c-0.295028-2.191636-0.80079-4.214686-1.222258-6.490615a23.433652 23.433652 0 0 1-0.421469-2.781693c6.364175-1.390846 1.137965-5.015476 1.47514-7.544287 12.644057-12.138294 28.196246-18.966085 43.874877-25.793875a7.712875 7.712875 0 0 0 4.509713 7.839315c5.689825 3.877511 5.479091 6.954231-0.547909 10.241686-7.670728 4.214686-15.299309 8.429371-22.717155 13.065525-3.498189 2.233783-3.329602 4.214686-1.137965 6.82779a477.987488 477.987488 0 0 0 42.905499 43.284821 334.393151 334.393151 0 0 0 53.73724 38.73296 364.317419 364.317419 0 0 0 110.424762 42.905499 415.146526 415.146526 0 0 0 65.032598 7.797168c10.410273 0.463615 20.609812-0.80079 30.893645-0.463615a4.214686 4.214686 0 0 0 4.804741-4.214686 220.975963 220.975963 0 0 0 0-49.227527 59.005598 59.005598 0 0 0-1.180112-12.096147c-0.80079-2.486664 0.295028-3.877511 3.329602-4.214686 6.954231-1.264406 13.824169-3.161014 20.694106-4.762595a225.612117 225.612117 0 0 1 0.716496 88.297663c-7.839315-0.885084-15.130721 2.992427-22.970036 2.528811-2.697399 0-3.835364 2.27593-4.467567 4.931182-2.613105 10.873889-4.973329 21.789924-8.429371 32.453079-1.180112 3.75107-2.528811 5.310504-6.574909 5.35265a411.521897 411.521897 0 0 1-104.524202-11.969707 42.821205 42.821205 0 0 0-14.624959-1.896608z" fill="#154AC6" p-id="17963"></path><path d="M732.113923 431.499506c-1.222259-0.379322-1.348699-1.432993-1.47514-2.486664 1.432993 0.252881 1.770168 1.180112 1.47514 2.486664z" fill="#FDE301" p-id="17964"></path><path d="M730.891664 429.181429c-0.927231 0-1.053671-0.885084-1.180112-1.643727z" fill="#FDE301" p-id="17965"></path><path d="M396.624953 478.61969c1.095818 4.804742 5.563385 6.195588 8.97728 8.429372a4.804742 4.804742 0 0 1 2.02305 7.038524c-0.969378 2.065196-1.053671 4.846888-4.678301 2.402371-1.559434-1.053671-2.402371 0.67435-1.601581 2.444518a20.314784 20.314784 0 0 0 4.720448 7.038525 477.481725 477.481725 0 0 0 66.760619 53.442212 353.022061 353.022061 0 0 0 32.453079 19.218966c2.781692 1.348699 6.279881 2.360224 6.617056 6.406322a311.423115 311.423115 0 0 0-48.511031 12.306882 120.455713 120.455713 0 0 1-38.353638 5.394798 101.489628 101.489628 0 0 1-39.154429-12.644057c-3.666776-2.065196-0.590056-2.191636 0.758643-2.992427a80.079025 80.079025 0 0 0-8.724399-4.678301c-12.644057-4.931182-19.345407-16.858742-29.88212-24.108001l-1.306553-1.390846a172.338492 172.338492 0 0 1-14.667105-18.50247 53.779388 53.779388 0 0 1 0.295028-50.576226 31.23082 31.23082 0 0 1 17.870266-15.636484l7.038525 3.371749 1.432993 0.463615v-1.47514l-2.360224-5.479091c13.4027 6.322028 26.088904 10.873889 35.951268 21.832071 1.854462-6.237735-2.908133-9.693777-4.42542-13.992756 3.456042-1.812315 4.889035 5.647679 8.766546 1.685874z" fill="#2E309F" p-id="17966"></path><path d="M332.055971 538.678959a172.338492 172.338492 0 0 0 14.667105 18.50247l1.306553 1.390846a14.709253 14.709253 0 0 0 1.517287 7.080672 13.149819 13.149819 0 0 1-1.222259 10.958182 150.927889 150.927889 0 0 0-10.030952 28.027659 10.410273 10.410273 0 0 0 0.295028 7.164966c6.237735 11.969707 10.241686 25.288113 20.609813 34.897596 7.122819 6.617056 16.35298 8.808693 24.571616 13.149819 1.348699 0.716497 3.287455 0.716497 3.287455 2.95028-9.525189-1.896608-19.050379-3.666776-28.533421-5.689826-4.214686-0.885084-8.429371-2.444518-8.218637 4.467567a93.523872 93.523872 0 0 1-43.706289-17.322358 16.184392 16.184392 0 0 1-6.279881-17.111623 235.727363 235.727363 0 0 1 30.345735-84.293711 20.399078 20.399078 0 0 0 1.390847-4.172539z" fill="#FE6C0F" p-id="17967"></path><path d="M386.636148 476.259467h-0.379321l0.379321-0.590056 0.421469 0.379321z" fill="#2E309F" p-id="17968"></path><path d="M396.624953 680.924597c-0.590056 0.463615-0.927231 1.011525-1.348699 1.053671s-1.264406-0.210734-1.390846-0.547909 0.295028-1.390846 1.137965-1.390846a5.731972 5.731972 0 0 1 1.60158 0.885084z" fill="#FE5618" p-id="17969"></path><path d="M348.029629 558.572275l-1.306553-1.390846zM358.482049 474.74218v1.47514l-1.432993-0.463616z" fill="#FD9101" p-id="17970"></path></svg>