<svg t="1696861148640" class="icon" viewBox="0 0 1024 1024" version="1.1" xmlns="http://www.w3.org/2000/svg" p-id="36528" width="200" height="200"><path d="M512 512m-512 0a512 512 0 1 0 1024 0 512 512 0 1 0-1024 0Z" fill="#3062F2" p-id="36529"></path><path d="M512 804.571429a292.571429 292.571429 0 1 1-0.073143-585.142858 292.571429 292.571429 0 0 1 0.109714 585.142858z m-127.561143-98.669715a337.005714 337.005714 0 0 1-18.651428-43.52 6.034286 6.034286 0 0 0-5.705143-4.096h-30.244572a6.070857 6.070857 0 0 0-4.754285 9.874286c14.665143 17.517714 31.707429 32.877714 50.651428 45.641143a6.070857 6.070857 0 0 0 8.704-7.899429z m-91.574857-96.365714h51.053714a5.997714 5.997714 0 0 0 5.924572-7.168 475.209143 475.209143 0 0 1-7.497143-60.269714 6.034286 6.034286 0 0 0-5.997714-5.705143h-59.977143a6.180571 6.180571 0 0 0-6.144 6.875428c2.816 21.504 8.521143 42.496 16.932571 62.500572a6.180571 6.180571 0 0 0 5.705143 3.766857z m-16.493714-121.929143h59.977143c3.218286 0 5.851429-2.523429 5.997714-5.705143 1.206857-20.224 3.730286-40.374857 7.497143-60.269714a5.997714 5.997714 0 0 0-5.924572-7.168H292.864c-2.486857 0-4.754286 1.462857-5.705143 3.766857a242.322286 242.322286 0 0 0-16.932571 62.500572 6.180571 6.180571 0 0 0 6.144 6.875428zM329.837714 365.714286h30.244572c2.56 0 4.827429-1.645714 5.668571-4.096 5.193143-14.921143 11.446857-29.44 18.651429-43.52a6.070857 6.070857 0 0 0-8.667429-7.899429c-18.944 12.8-35.986286 28.16-50.651428 45.604572a6.070857 6.070857 0 0 0 4.754285 9.910857z m148.48-88.100572c-23.990857 13.824-44.909714 42.057143-60.342857 79.689143a6.144 6.144 0 0 0 5.668572 8.411429h57.892571a6.107429 6.107429 0 0 0 6.070857-6.107429V282.916571a6.180571 6.180571 0 0 0-9.252571-5.302857z m3.218286 136.850286h-76.251429a6.107429 6.107429 0 0 0-5.997714 4.864 446.902857 446.902857 0 0 0-8.192 61.769143 6.180571 6.180571 0 0 0 6.144 6.509714h84.297143a6.107429 6.107429 0 0 0 6.070857-6.070857V420.571429a6.107429 6.107429 0 0 0-6.070857-6.107429z m0 121.929143h-84.297143a6.180571 6.180571 0 0 0-6.144 6.509714c1.28 20.772571 4.022857 41.398857 8.192 61.805714a6.107429 6.107429 0 0 0 5.997714 4.827429h76.251429a6.107429 6.107429 0 0 0 6.070857-6.107429v-60.964571a6.107429 6.107429 0 0 0-6.070857-6.070857z m0 121.892571h-57.892571a6.144 6.144 0 0 0-5.705143 8.411429c15.469714 37.595429 36.388571 65.865143 60.416 79.689143a6.180571 6.180571 0 0 0 9.252571-5.302857v-76.690286a6.107429 6.107429 0 0 0-6.070857-6.107429z m266.093714-121.892571h-59.977143c-3.218286 0-5.851429 2.523429-5.997714 5.705143a474.733714 474.733714 0 0 1-7.497143 60.269714 5.997714 5.997714 0 0 0 5.924572 7.168h51.053714c2.486857 0 4.754286-1.462857 5.705143-3.766857a242.102857 242.102857 0 0 0 16.932571-62.500572 6.180571 6.180571 0 0 0-6.144-6.875428zM694.125714 658.285714h-30.208a6.034286 6.034286 0 0 0-5.668571 4.096 337.005714 337.005714 0 0 1-18.651429 43.52 6.070857 6.070857 0 0 0 8.667429 7.899429c18.944-12.8 35.986286-28.16 50.651428-45.604572a6.070857 6.070857 0 0 0-4.754285-9.910857z m-148.48 88.100572c24.027429-13.824 44.946286-42.057143 60.416-79.689143a6.144 6.144 0 0 0-5.705143-8.411429h-57.892571a6.107429 6.107429 0 0 0-6.070857 6.107429v76.690286a6.180571 6.180571 0 0 0 9.252571 5.302857z m-3.181714-136.850286h76.251429c2.889143 0 5.412571-2.011429 5.997714-4.864 4.169143-20.370286 6.912-40.996571 8.192-61.769143a6.180571 6.180571 0 0 0-6.144-6.509714h-84.297143a6.107429 6.107429 0 0 0-6.070857 6.070857V603.428571c0 3.364571 2.706286 6.107429 6.070857 6.107429z m-6.070857-326.582857v76.653714c0 3.364571 2.706286 6.107429 6.070857 6.107429h57.892571a6.144 6.144 0 0 0 5.705143-8.411429c-15.469714-37.595429-36.388571-65.865143-60.416-79.689143a6.180571 6.180571 0 0 0-9.252571 5.302857z m0 137.618286v60.964571c0 3.364571 2.706286 6.070857 6.070857 6.070857h84.333714a6.180571 6.180571 0 0 0 6.107429-6.509714 447.488 447.488 0 0 0-8.192-61.805714 6.107429 6.107429 0 0 0-5.997714-4.827429h-76.251429a6.107429 6.107429 0 0 0-6.070857 6.107429z m103.168-102.473143c7.241143 14.08 13.494857 28.598857 18.651428 43.52a6.034286 6.034286 0 0 0 5.705143 4.096h30.208a6.070857 6.070857 0 0 0 4.790857-9.874286 244.918857 244.918857 0 0 0-50.614857-45.641143 6.070857 6.070857 0 0 0-8.740571 7.899429z m34.596571 103.533714c3.766857 19.894857 6.290286 40.045714 7.460572 60.269714a6.034286 6.034286 0 0 0 6.034285 5.705143h59.977143a6.180571 6.180571 0 0 0 6.144-6.875428 242.212571 242.212571 0 0 0-16.932571-62.500572 6.180571 6.180571 0 0 0-5.705143-3.766857h-51.053714a5.997714 5.997714 0 0 0-5.924572 7.168z" fill="#FFFFFF" p-id="36530"></path></svg>